<svg xmlns="http://www.w3.org/2000/svg" viewBox="0 0 900 1125" width="900" height="1125"><rect width="900" height="1125" fill="#EAE5D6"/><path d="M0,260 Q45.0,244 90,244 Q135.0,273 180,273 Q225.0,296 270,296 Q315.0,266 360,266 Q405.0,267 450,267 Q495.0,298 540,298 Q585.0,312 630,312 Q675.0,346 720,346 Q765.0,374 810,374 Q855.0,336 900,336 L900,1125 L0,1125 Z" fill="#8B5CF6" opacity="0.95"/><path d="M0,450 Q45.0,481 90,481 Q135.0,436 180,436 Q225.0,450 270,450 Q315.0,437 360,437 Q405.0,461 450,461 Q495.0,444 540,444 Q585.0,422 630,422 Q675.0,467 720,467 Q765.0,481 810,481 Q855.0,504 900,504 L900,1125 L0,1125 Z" fill="#2451FF" opacity="0.95"/><path d="M0,640 Q45.0,664 90,664 Q135.0,678 180,678 Q225.0,682 270,682 Q315.0,717 360,717 Q405.0,690 450,690 Q495.0,673 540,673 Q585.0,708 630,708 Q675.0,681 720,681 Q765.0,701 810,701 Q855.0,704 900,704 L900,1125 L0,1125 Z" fill="#FF4B2B" opacity="0.95"/><path d="M0,830 Q45.0,785 90,785 Q135.0,824 180,824 Q225.0,786 270,786 Q315.0,760 360,760 Q405.0,789 450,789 Q495.0,748 540,748 Q585.0,740 630,740 Q675.0,697 720,697 Q765.0,685 810,685 Q855.0,699 900,699 L900,1125 L0,1125 Z" fill="#181812" opacity="0.95"/></svg>