<svg xmlns="http://www.w3.org/2000/svg" viewBox="0 0 900 1125" width="900" height="1125"><rect width="900" height="1125" fill="#181812"/><defs><linearGradient id="g1" x1="0" y1="0" x2="1" y2="0"><stop offset="0" stop-color="#FF4B2B"/><stop offset="1" stop-color="#8B5CF6"/></linearGradient><linearGradient id="g2" x1="0" y1="0" x2="1" y2="0"><stop offset="0" stop-color="#2451FF"/><stop offset="1" stop-color="#17C3B2"/></linearGradient><linearGradient id="g3" x1="0" y1="0" x2="1" y2="0"><stop offset="0" stop-color="#8B5CF6"/><stop offset="1" stop-color="#2451FF"/></linearGradient><linearGradient id="g4" x1="0" y1="0" x2="1" y2="0"><stop offset="0" stop-color="#17C3B2"/><stop offset="1" stop-color="#FF4B2B"/></linearGradient></defs><rect x="80.0" y="86.0" width="740.0" height="82.5" fill="url(#g1)"/><rect x="89.0" y="182.5" width="722.0" height="82.5" fill="url(#g2)"/><rect x="98.0" y="279.0" width="704.0" height="82.5" fill="url(#g3)"/><rect x="107.0" y="375.5" width="686.0" height="82.5" fill="url(#g4)"/><rect x="116.0" y="472.0" width="668.0" height="82.5" fill="url(#g1)"/><rect x="116.0" y="568.5" width="668.0" height="82.5" fill="url(#g2)"/><rect x="107.0" y="665.0" width="686.0" height="82.5" fill="url(#g3)"/><rect x="98.0" y="761.5" width="704.0" height="82.5" fill="url(#g4)"/><rect x="89.0" y="858.0" width="722.0" height="82.5" fill="url(#g1)"/><rect x="80.0" y="954.5" width="740.0" height="82.5" fill="url(#g2)"/></svg>