<svg xmlns="http://www.w3.org/2000/svg" viewBox="0 0 900 1125" width="900" height="1125"><rect width="900" height="1125" fill="#181812"/><line x1="82.6" y1="78.9" x2="186.5" y2="99.9" stroke="#EAE5D6" stroke-width="1" opacity="0.35"/><line x1="82.6" y1="78.9" x2="87.1" y2="174.8" stroke="#EAE5D6" stroke-width="1" opacity="0.35"/><line x1="87.1" y1="174.8" x2="190.6" y2="172.9" stroke="#EAE5D6" stroke-width="1" opacity="0.35"/><line x1="87.1" y1="174.8" x2="77.9" y2="276.2" stroke="#EAE5D6" stroke-width="1" opacity="0.35"/><line x1="77.9" y1="276.2" x2="183.0" y2="283.8" stroke="#EAE5D6" stroke-width="1" opacity="0.35"/><line x1="77.9" y1="276.2" x2="101.7" y2="381.9" stroke="#EAE5D6" stroke-width="1" opacity="0.35"/><line x1="101.7" y1="381.9" x2="180.2" y2="364.5" stroke="#EAE5D6" stroke-width="1" opacity="0.35"/><line x1="101.7" y1="381.9" x2="97.4" y2="460.2" stroke="#EAE5D6" stroke-width="1" opacity="0.35"/><line x1="97.4" y1="460.2" x2="179.3" y2="456.5" stroke="#EAE5D6" stroke-width="1" opacity="0.35"/><line x1="97.4" y1="460.2" x2="91.0" y2="556.2" stroke="#EAE5D6" stroke-width="1" opacity="0.35"/><line x1="91.0" y1="556.2" x2="192.2" y2="572.7" stroke="#EAE5D6" stroke-width="1" opacity="0.35"/><line x1="91.0" y1="556.2" x2="80.8" y2="646.0" stroke="#EAE5D6" stroke-width="1" opacity="0.35"/><line x1="80.8" y1="646.0" x2="181.3" y2="651.4" stroke="#EAE5D6" stroke-width="1" opacity="0.35"/><line x1="80.8" y1="646.0" x2="82.0" y2="763.5" stroke="#EAE5D6" stroke-width="1" opacity="0.35"/><line x1="82.0" y1="763.5" x2="191.4" y2="753.5" stroke="#EAE5D6" stroke-width="1" opacity="0.35"/><line x1="82.0" y1="763.5" x2="99.2" y2="854.6" stroke="#EAE5D6" stroke-width="1" opacity="0.35"/><line x1="99.2" y1="854.6" x2="190.7" y2="855.7" stroke="#EAE5D6" stroke-width="1" opacity="0.35"/><line x1="99.2" y1="854.6" x2="98.4" y2="931.9" stroke="#EAE5D6" stroke-width="1" opacity="0.35"/><line x1="98.4" y1="931.9" x2="180.2" y2="938.1" stroke="#EAE5D6" stroke-width="1" opacity="0.35"/><line x1="98.4" y1="931.9" x2="84.7" y2="1038.6" stroke="#EAE5D6" stroke-width="1" opacity="0.35"/><line x1="84.7" y1="1038.6" x2="182.8" y2="1033.1" stroke="#EAE5D6" stroke-width="1" opacity="0.35"/><line x1="186.5" y1="99.9" x2="260.5" y2="84.5" stroke="#EAE5D6" stroke-width="1" opacity="0.35"/><line x1="186.5" y1="99.9" x2="190.6" y2="172.9" stroke="#EAE5D6" stroke-width="1" opacity="0.35"/><line x1="190.6" y1="172.9" x2="278.8" y2="171.7" stroke="#EAE5D6" stroke-width="1" opacity="0.35"/><line x1="190.6" y1="172.9" x2="183.0" y2="283.8" stroke="#EAE5D6" stroke-width="1" opacity="0.35"/><line x1="183.0" y1="283.8" x2="257.3" y2="282.5" stroke="#EAE5D6" stroke-width="1" opacity="0.35"/><line x1="183.0" y1="283.8" x2="180.2" y2="364.5" stroke="#EAE5D6" stroke-width="1" opacity="0.35"/><line x1="180.2" y1="364.5" x2="263.9" y2="374.5" stroke="#EAE5D6" stroke-width="1" opacity="0.35"/><line x1="180.2" y1="364.5" x2="179.3" y2="456.5" stroke="#EAE5D6" stroke-width="1" opacity="0.35"/><line x1="179.3" y1="456.5" x2="269.2" y2="463.6" stroke="#EAE5D6" stroke-width="1" opacity="0.35"/><line x1="179.3" y1="456.5" x2="192.2" y2="572.7" stroke="#EAE5D6" stroke-width="1" opacity="0.35"/><line x1="192.2" y1="572.7" x2="283.9" y2="554.0" stroke="#EAE5D6" stroke-width="1" opacity="0.35"/><line x1="192.2" y1="572.7" x2="181.3" y2="651.4" stroke="#EAE5D6" stroke-width="1" opacity="0.35"/><line x1="181.3" y1="651.4" x2="267.6" y2="648.7" stroke="#EAE5D6" stroke-width="1" opacity="0.35"/><line x1="181.3" y1="651.4" x2="191.4" y2="753.5" stroke="#EAE5D6" stroke-width="1" opacity="0.35"/><line x1="191.4" y1="753.5" x2="273.7" y2="745.2" stroke="#EAE5D6" stroke-width="1" opacity="0.35"/><line x1="191.4" y1="753.5" x2="190.7" y2="855.7" stroke="#EAE5D6" stroke-width="1" opacity="0.35"/><line x1="190.7" y1="855.7" x2="266.0" y2="852.9" stroke="#EAE5D6" stroke-width="1" opacity="0.35"/><line x1="190.7" y1="855.7" x2="180.2" y2="938.1" stroke="#EAE5D6" stroke-width="1" opacity="0.35"/><line x1="180.2" y1="938.1" x2="265.0" y2="942.1" stroke="#EAE5D6" stroke-width="1" opacity="0.35"/><line x1="180.2" y1="938.1" x2="182.8" y2="1033.1" stroke="#EAE5D6" stroke-width="1" opacity="0.35"/><line x1="182.8" y1="1033.1" x2="281.3" y2="1023.8" stroke="#EAE5D6" stroke-width="1" opacity="0.35"/><line x1="260.5" y1="84.5" x2="347.7" y2="82.4" stroke="#EAE5D6" stroke-width="1" opacity="0.35"/><line x1="260.5" y1="84.5" x2="278.8" y2="171.7" stroke="#EAE5D6" stroke-width="1" opacity="0.35"/><line x1="278.8" y1="171.7" x2="367.4" y2="187.7" stroke="#EAE5D6" stroke-width="1" opacity="0.35"/><line x1="278.8" y1="171.7" x2="257.3" y2="282.5" stroke="#EAE5D6" stroke-width="1" opacity="0.35"/><line x1="257.3" y1="282.5" x2="352.6" y2="274.3" stroke="#EAE5D6" stroke-width="1" opacity="0.35"/><line x1="257.3" y1="282.5" x2="263.9" y2="374.5" stroke="#EAE5D6" stroke-width="1" opacity="0.35"/><line x1="263.9" y1="374.5" x2="351.0" y2="372.4" stroke="#EAE5D6" stroke-width="1" opacity="0.35"/><line x1="263.9" y1="374.5" x2="269.2" y2="463.6" stroke="#EAE5D6" stroke-width="1" opacity="0.35"/><line x1="269.2" y1="463.6" x2="347.2" y2="473.5" stroke="#EAE5D6" stroke-width="1" opacity="0.35"/><line x1="269.2" y1="463.6" x2="283.9" y2="554.0" stroke="#EAE5D6" stroke-width="1" opacity="0.35"/><line x1="283.9" y1="554.0" x2="371.1" y2="575.2" stroke="#EAE5D6" stroke-width="1" opacity="0.35"/><line x1="283.9" y1="554.0" x2="267.6" y2="648.7" stroke="#EAE5D6" stroke-width="1" opacity="0.35"/><line x1="267.6" y1="648.7" x2="366.6" y2="669.9" stroke="#EAE5D6" stroke-width="1" opacity="0.35"/><line x1="267.6" y1="648.7" x2="273.7" y2="745.2" stroke="#EAE5D6" stroke-width="1" opacity="0.35"/><line x1="273.7" y1="745.2" x2="346.5" y2="745.6" stroke="#EAE5D6" stroke-width="1" opacity="0.35"/><line x1="273.7" y1="745.2" x2="266.0" y2="852.9" stroke="#EAE5D6" stroke-width="1" opacity="0.35"/><line x1="266.0" y1="852.9" x2="373.0" y2="853.7" stroke="#EAE5D6" stroke-width="1" opacity="0.35"/><line x1="266.0" y1="852.9" x2="265.0" y2="942.1" stroke="#EAE5D6" stroke-width="1" opacity="0.35"/><line x1="265.0" y1="942.1" x2="357.5" y2="952.9" stroke="#EAE5D6" stroke-width="1" opacity="0.35"/><line x1="265.0" y1="942.1" x2="281.3" y2="1023.8" stroke="#EAE5D6" stroke-width="1" opacity="0.35"/><line x1="281.3" y1="1023.8" x2="363.4" y2="1043.9" stroke="#EAE5D6" stroke-width="1" opacity="0.35"/><line x1="347.7" y1="82.4" x2="444.2" y2="81.4" stroke="#EAE5D6" stroke-width="1" opacity="0.35"/><line x1="347.7" y1="82.4" x2="367.4" y2="187.7" stroke="#EAE5D6" stroke-width="1" opacity="0.35"/><line x1="367.4" y1="187.7" x2="448.4" y2="174.3" stroke="#EAE5D6" stroke-width="1" opacity="0.35"/><line x1="367.4" y1="187.7" x2="352.6" y2="274.3" stroke="#EAE5D6" stroke-width="1" opacity="0.35"/><line x1="352.6" y1="274.3" x2="446.7" y2="291.9" stroke="#EAE5D6" stroke-width="1" opacity="0.35"/><line x1="352.6" y1="274.3" x2="351.0" y2="372.4" stroke="#EAE5D6" stroke-width="1" opacity="0.35"/><line x1="351.0" y1="372.4" x2="445.3" y2="359.8" stroke="#EAE5D6" stroke-width="1" opacity="0.35"/><line x1="351.0" y1="372.4" x2="347.2" y2="473.5" stroke="#EAE5D6" stroke-width="1" opacity="0.35"/><line x1="347.2" y1="473.5" x2="437.3" y2="458.7" stroke="#EAE5D6" stroke-width="1" opacity="0.35"/><line x1="347.2" y1="473.5" x2="371.1" y2="575.2" stroke="#EAE5D6" stroke-width="1" opacity="0.35"/><line x1="371.1" y1="575.2" x2="457.9" y2="558.7" stroke="#EAE5D6" stroke-width="1" opacity="0.35"/><line x1="371.1" y1="575.2" x2="366.6" y2="669.9" stroke="#EAE5D6" stroke-width="1" opacity="0.35"/><line x1="366.6" y1="669.9" x2="444.1" y2="645.7" stroke="#EAE5D6" stroke-width="1" opacity="0.35"/><line x1="366.6" y1="669.9" x2="346.5" y2="745.6" stroke="#EAE5D6" stroke-width="1" opacity="0.35"/><line x1="346.5" y1="745.6" x2="463.5" y2="749.4" stroke="#EAE5D6" stroke-width="1" opacity="0.35"/><line x1="346.5" y1="745.6" x2="373.0" y2="853.7" stroke="#EAE5D6" stroke-width="1" opacity="0.35"/><line x1="373.0" y1="853.7" x2="441.8" y2="833.7" stroke="#EAE5D6" stroke-width="1" opacity="0.35"/><line x1="373.0" y1="853.7" x2="357.5" y2="952.9" stroke="#EAE5D6" stroke-width="1" opacity="0.35"/><line x1="357.5" y1="952.9" x2="437.5" y2="931.2" stroke="#EAE5D6" stroke-width="1" opacity="0.35"/><line x1="357.5" y1="952.9" x2="363.4" y2="1043.9" stroke="#EAE5D6" stroke-width="1" opacity="0.35"/><line x1="363.4" y1="1043.9" x2="455.0" y2="1025.2" stroke="#EAE5D6" stroke-width="1" opacity="0.35"/><line x1="444.2" y1="81.4" x2="527.1" y2="89.7" stroke="#EAE5D6" stroke-width="1" opacity="0.35"/><line x1="444.2" y1="81.4" x2="448.4" y2="174.3" stroke="#EAE5D6" stroke-width="1" opacity="0.35"/><line x1="448.4" y1="174.3" x2="533.0" y2="198.4" stroke="#EAE5D6" stroke-width="1" opacity="0.35"/><line x1="448.4" y1="174.3" x2="446.7" y2="291.9" stroke="#EAE5D6" stroke-width="1" opacity="0.35"/><line x1="446.7" y1="291.9" x2="529.4" y2="279.8" stroke="#EAE5D6" stroke-width="1" opacity="0.35"/><line x1="446.7" y1="291.9" x2="445.3" y2="359.8" stroke="#EAE5D6" stroke-width="1" opacity="0.35"/><line x1="445.3" y1="359.8" x2="547.7" y2="371.0" stroke="#EAE5D6" stroke-width="1" opacity="0.35"/><line x1="445.3" y1="359.8" x2="437.3" y2="458.7" stroke="#EAE5D6" stroke-width="1" opacity="0.35"/><line x1="437.3" y1="458.7" x2="553.7" y2="467.4" stroke="#EAE5D6" stroke-width="1" opacity="0.35"/><line x1="437.3" y1="458.7" x2="457.9" y2="558.7" stroke="#EAE5D6" stroke-width="1" opacity="0.35"/><line x1="457.9" y1="558.7" x2="532.8" y2="560.0" stroke="#EAE5D6" stroke-width="1" opacity="0.35"/><line x1="457.9" y1="558.7" x2="444.1" y2="645.7" stroke="#EAE5D6" stroke-width="1" opacity="0.35"/><line x1="444.1" y1="645.7" x2="527.0" y2="654.8" stroke="#EAE5D6" stroke-width="1" opacity="0.35"/><line x1="444.1" y1="645.7" x2="463.5" y2="749.4" stroke="#EAE5D6" stroke-width="1" opacity="0.35"/><line x1="463.5" y1="749.4" x2="533.0" y2="762.4" stroke="#EAE5D6" stroke-width="1" opacity="0.35"/><line x1="463.5" y1="749.4" x2="441.8" y2="833.7" stroke="#EAE5D6" stroke-width="1" opacity="0.35"/><line x1="441.8" y1="833.7" x2="549.3" y2="846.0" stroke="#EAE5D6" stroke-width="1" opacity="0.35"/><line x1="441.8" y1="833.7" x2="437.5" y2="931.2" stroke="#EAE5D6" stroke-width="1" opacity="0.35"/><line x1="437.5" y1="931.2" x2="526.9" y2="933.6" stroke="#EAE5D6" stroke-width="1" opacity="0.35"/><line x1="437.5" y1="931.2" x2="455.0" y2="1025.2" stroke="#EAE5D6" stroke-width="1" opacity="0.35"/><line x1="455.0" y1="1025.2" x2="532.8" y2="1026.8" stroke="#EAE5D6" stroke-width="1" opacity="0.35"/><line x1="527.1" y1="89.7" x2="622.5" y2="100.4" stroke="#EAE5D6" stroke-width="1" opacity="0.35"/><line x1="527.1" y1="89.7" x2="533.0" y2="198.4" stroke="#EAE5D6" stroke-width="1" opacity="0.35"/><line x1="533.0" y1="198.4" x2="620.0" y2="171.9" stroke="#EAE5D6" stroke-width="1" opacity="0.35"/><line x1="533.0" y1="198.4" x2="529.4" y2="279.8" stroke="#EAE5D6" stroke-width="1" opacity="0.35"/><line x1="529.4" y1="279.8" x2="642.0" y2="280.8" stroke="#EAE5D6" stroke-width="1" opacity="0.35"/><line x1="529.4" y1="279.8" x2="547.7" y2="371.0" stroke="#EAE5D6" stroke-width="1" opacity="0.35"/><line x1="547.7" y1="371.0" x2="643.7" y2="370.8" stroke="#EAE5D6" stroke-width="1" opacity="0.35"/><line x1="547.7" y1="371.0" x2="553.7" y2="467.4" stroke="#EAE5D6" stroke-width="1" opacity="0.35"/><line x1="553.7" y1="467.4" x2="641.2" y2="472.3" stroke="#EAE5D6" stroke-width="1" opacity="0.35"/><line x1="553.7" y1="467.4" x2="532.8" y2="560.0" stroke="#EAE5D6" stroke-width="1" opacity="0.35"/><line x1="532.8" y1="560.0" x2="638.1" y2="569.4" stroke="#EAE5D6" stroke-width="1" opacity="0.35"/><line x1="532.8" y1="560.0" x2="527.0" y2="654.8" stroke="#EAE5D6" stroke-width="1" opacity="0.35"/><line x1="527.0" y1="654.8" x2="629.8" y2="645.6" stroke="#EAE5D6" stroke-width="1" opacity="0.35"/><line x1="527.0" y1="654.8" x2="533.0" y2="762.4" stroke="#EAE5D6" stroke-width="1" opacity="0.35"/><line x1="533.0" y1="762.4" x2="621.9" y2="762.0" stroke="#EAE5D6" stroke-width="1" opacity="0.35"/><line x1="533.0" y1="762.4" x2="549.3" y2="846.0" stroke="#EAE5D6" stroke-width="1" opacity="0.35"/><line x1="549.3" y1="846.0" x2="641.2" y2="857.9" stroke="#EAE5D6" stroke-width="1" opacity="0.35"/><line x1="549.3" y1="846.0" x2="526.9" y2="933.6" stroke="#EAE5D6" stroke-width="1" opacity="0.35"/><line x1="526.9" y1="933.6" x2="625.4" y2="944.9" stroke="#EAE5D6" stroke-width="1" opacity="0.35"/><line x1="526.9" y1="933.6" x2="532.8" y2="1026.8" stroke="#EAE5D6" stroke-width="1" opacity="0.35"/><line x1="532.8" y1="1026.8" x2="638.4" y2="1039.0" stroke="#EAE5D6" stroke-width="1" opacity="0.35"/><line x1="622.5" y1="100.4" x2="728.8" y2="90.8" stroke="#EAE5D6" stroke-width="1" opacity="0.35"/><line x1="622.5" y1="100.4" x2="620.0" y2="171.9" stroke="#EAE5D6" stroke-width="1" opacity="0.35"/><line x1="620.0" y1="171.9" x2="724.3" y2="189.7" stroke="#EAE5D6" stroke-width="1" opacity="0.35"/><line x1="620.0" y1="171.9" x2="642.0" y2="280.8" stroke="#EAE5D6" stroke-width="1" opacity="0.35"/><line x1="642.0" y1="280.8" x2="713.5" y2="290.8" stroke="#EAE5D6" stroke-width="1" opacity="0.35"/><line x1="642.0" y1="280.8" x2="643.7" y2="370.8" stroke="#EAE5D6" stroke-width="1" opacity="0.35"/><line x1="643.7" y1="370.8" x2="732.8" y2="361.6" stroke="#EAE5D6" stroke-width="1" opacity="0.35"/><line x1="643.7" y1="370.8" x2="641.2" y2="472.3" stroke="#EAE5D6" stroke-width="1" opacity="0.35"/><line x1="641.2" y1="472.3" x2="733.2" y2="480.9" stroke="#EAE5D6" stroke-width="1" opacity="0.35"/><line x1="641.2" y1="472.3" x2="638.1" y2="569.4" stroke="#EAE5D6" stroke-width="1" opacity="0.35"/><line x1="638.1" y1="569.4" x2="724.7" y2="549.7" stroke="#EAE5D6" stroke-width="1" opacity="0.35"/><line x1="638.1" y1="569.4" x2="629.8" y2="645.6" stroke="#EAE5D6" stroke-width="1" opacity="0.35"/><line x1="629.8" y1="645.6" x2="731.2" y2="646.6" stroke="#EAE5D6" stroke-width="1" opacity="0.35"/><line x1="629.8" y1="645.6" x2="621.9" y2="762.0" stroke="#EAE5D6" stroke-width="1" opacity="0.35"/><line x1="621.9" y1="762.0" x2="733.1" y2="756.2" stroke="#EAE5D6" stroke-width="1" opacity="0.35"/><line x1="621.9" y1="762.0" x2="641.2" y2="857.9" stroke="#EAE5D6" stroke-width="1" opacity="0.35"/><line x1="641.2" y1="857.9" x2="707.7" y2="836.7" stroke="#EAE5D6" stroke-width="1" opacity="0.35"/><line x1="641.2" y1="857.9" x2="625.4" y2="944.9" stroke="#EAE5D6" stroke-width="1" opacity="0.35"/><line x1="625.4" y1="944.9" x2="723.8" y2="942.4" stroke="#EAE5D6" stroke-width="1" opacity="0.35"/><line x1="625.4" y1="944.9" x2="638.4" y2="1039.0" stroke="#EAE5D6" stroke-width="1" opacity="0.35"/><line x1="638.4" y1="1039.0" x2="726.9" y2="1047.0" stroke="#EAE5D6" stroke-width="1" opacity="0.35"/><line x1="728.8" y1="90.8" x2="802.1" y2="76.1" stroke="#EAE5D6" stroke-width="1" opacity="0.35"/><line x1="728.8" y1="90.8" x2="724.3" y2="189.7" stroke="#EAE5D6" stroke-width="1" opacity="0.35"/><line x1="724.3" y1="189.7" x2="821.8" y2="170.9" stroke="#EAE5D6" stroke-width="1" opacity="0.35"/><line x1="724.3" y1="189.7" x2="713.5" y2="290.8" stroke="#EAE5D6" stroke-width="1" opacity="0.35"/><line x1="713.5" y1="290.8" x2="820.5" y2="268.2" stroke="#EAE5D6" stroke-width="1" opacity="0.35"/><line x1="713.5" y1="290.8" x2="732.8" y2="361.6" stroke="#EAE5D6" stroke-width="1" opacity="0.35"/><line x1="732.8" y1="361.6" x2="818.7" y2="381.4" stroke="#EAE5D6" stroke-width="1" opacity="0.35"/><line x1="732.8" y1="361.6" x2="733.2" y2="480.9" stroke="#EAE5D6" stroke-width="1" opacity="0.35"/><line x1="733.2" y1="480.9" x2="820.6" y2="469.4" stroke="#EAE5D6" stroke-width="1" opacity="0.35"/><line x1="733.2" y1="480.9" x2="724.7" y2="549.7" stroke="#EAE5D6" stroke-width="1" opacity="0.35"/><line x1="724.7" y1="549.7" x2="820.6" y2="554.1" stroke="#EAE5D6" stroke-width="1" opacity="0.35"/><line x1="724.7" y1="549.7" x2="731.2" y2="646.6" stroke="#EAE5D6" stroke-width="1" opacity="0.35"/><line x1="731.2" y1="646.6" x2="814.8" y2="652.3" stroke="#EAE5D6" stroke-width="1" opacity="0.35"/><line x1="731.2" y1="646.6" x2="733.1" y2="756.2" stroke="#EAE5D6" stroke-width="1" opacity="0.35"/><line x1="733.1" y1="756.2" x2="821.0" y2="759.2" stroke="#EAE5D6" stroke-width="1" opacity="0.35"/><line x1="733.1" y1="756.2" x2="707.7" y2="836.7" stroke="#EAE5D6" stroke-width="1" opacity="0.35"/><line x1="707.7" y1="836.7" x2="809.2" y2="846.7" stroke="#EAE5D6" stroke-width="1" opacity="0.35"/><line x1="707.7" y1="836.7" x2="723.8" y2="942.4" stroke="#EAE5D6" stroke-width="1" opacity="0.35"/><line x1="723.8" y1="942.4" x2="796.7" y2="927.5" stroke="#EAE5D6" stroke-width="1" opacity="0.35"/><line x1="723.8" y1="942.4" x2="726.9" y2="1047.0" stroke="#EAE5D6" stroke-width="1" opacity="0.35"/><line x1="726.9" y1="1047.0" x2="812.6" y2="1034.7" stroke="#EAE5D6" stroke-width="1" opacity="0.35"/><line x1="802.1" y1="76.1" x2="821.8" y2="170.9" stroke="#EAE5D6" stroke-width="1" opacity="0.35"/><line x1="821.8" y1="170.9" x2="820.5" y2="268.2" stroke="#EAE5D6" stroke-width="1" opacity="0.35"/><line x1="820.5" y1="268.2" x2="818.7" y2="381.4" stroke="#EAE5D6" stroke-width="1" opacity="0.35"/><line x1="818.7" y1="381.4" x2="820.6" y2="469.4" stroke="#EAE5D6" stroke-width="1" opacity="0.35"/><line x1="820.6" y1="469.4" x2="820.6" y2="554.1" stroke="#EAE5D6" stroke-width="1" opacity="0.35"/><line x1="820.6" y1="554.1" x2="814.8" y2="652.3" stroke="#EAE5D6" stroke-width="1" opacity="0.35"/><line x1="814.8" y1="652.3" x2="821.0" y2="759.2" stroke="#EAE5D6" stroke-width="1" opacity="0.35"/><line x1="821.0" y1="759.2" x2="809.2" y2="846.7" stroke="#EAE5D6" stroke-width="1" opacity="0.35"/><line x1="809.2" y1="846.7" x2="796.7" y2="927.5" stroke="#EAE5D6" stroke-width="1" opacity="0.35"/><line x1="796.7" y1="927.5" x2="812.6" y2="1034.7" stroke="#EAE5D6" stroke-width="1" opacity="0.35"/><circle cx="77.9" cy="276.2" r="4.6" fill="#17C3B2"/><circle cx="82.0" cy="763.5" r="7.2" fill="#2451FF"/><circle cx="180.2" cy="364.5" r="9.6" fill="#2451FF"/><circle cx="263.9" cy="374.5" r="5.2" fill="#2451FF"/><circle cx="267.6" cy="648.7" r="10.0" fill="#17C3B2"/><circle cx="265.0" cy="942.1" r="4.0" fill="#FF4B2B"/><circle cx="347.2" cy="473.5" r="6.9" fill="#FF4B2B"/><circle cx="357.5" cy="952.9" r="8.3" fill="#FF4B2B"/><circle cx="441.8" cy="833.7" r="6.5" fill="#2451FF"/><circle cx="455.0" cy="1025.2" r="8.2" fill="#FF4B2B"/><circle cx="549.3" cy="846.0" r="10.6" fill="#2451FF"/><circle cx="642.0" cy="280.8" r="7.7" fill="#FF4B2B"/><circle cx="641.2" cy="472.3" r="9.7" fill="#17C3B2"/><circle cx="629.8" cy="645.6" r="10.9" fill="#2451FF"/><circle cx="625.4" cy="944.9" r="5.2" fill="#FF4B2B"/></svg>